<svg width="551" height="168" viewBox="0 0 551 168" fill="none" xmlns="http://www.w3.org/2000/svg">
<path d="M93.36 168V138.24H11.04V111.36L89.04 -1.14441e-05H126.96V108.96H148.32V138.24H126.96V168H93.36ZM46.8 108.96H95.52V36.96L46.8 108.96ZM486.332 168V138.24H404.012V111.36L482.012 -1.14441e-05H519.932V108.96H541.292V138.24H519.932V168H486.332ZM439.772 108.96H488.492V36.96L439.772 108.96Z" fill="white"/>
<path fill-rule="evenodd" clip-rule="evenodd" d="M294.955 58.1028C285.128 47.8695 271.308 41.5 256 41.5C226.177 41.5 202 65.6766 202 95.5C202 111.148 208.656 125.241 219.291 135.104L198.258 156.508C182.087 141.197 172 119.527 172 95.5C172 49.1081 209.608 11.5 256 11.5C279.498 11.5 300.742 21.1481 315.987 36.6988L294.955 58.1028Z" fill="#EBEB41"/>
<path fill-rule="evenodd" clip-rule="evenodd" d="M342.351 32.3998C352.759 42.0416 359.375 55.7454 359.649 71.0507C360.183 100.869 336.443 125.475 306.625 126.009C290.979 126.289 276.769 119.887 266.718 109.431L245.694 130.843C261.291 146.737 283.139 156.435 307.162 156.004C353.546 155.174 390.475 116.898 389.644 70.5135C389.223 47.0197 379.196 25.9518 363.375 10.9875L342.351 32.3998Z" fill="#EBEB41"/>
<path d="M351.5 0L197.5 156.5H222L364.5 12L351.5 0Z" fill="#EBEB41"/>
</svg>
